<?xml version="1.0" encoding="UTF-8" standalone="no"?>
<svg
   xmlns:dc="http://purl.org/dc/elements/1.1/"
   xmlns:cc="http://creativecommons.org/ns#"
   xmlns:rdf="http://www.w3.org/1999/02/22-rdf-syntax-ns#"
   xmlns:svg="http://www.w3.org/2000/svg"
   xmlns="http://www.w3.org/2000/svg"
   xmlns:sodipodi="http://sodipodi.sourceforge.net/DTD/sodipodi-0.dtd"
   xmlns:inkscape="http://www.inkscape.org/namespaces/inkscape"
   width="1094.8818897637796"
   height="609.4488188976378"
   id="box"
   version="1.1"
   inkscape:version="0.92.4 (5da689c313, 2019-01-14)"
   sodipodi:docname="box_150x80x40_3mm (1).svg">
  <defs
     id="defs4" />
  <sodipodi:namedview
     id="base"
     pagecolor="#ffffff"
     bordercolor="#666666"
     borderopacity="1.0"
     inkscape:pageopacity="0.0"
     inkscape:pageshadow="2"
     inkscape:document-units="mm"
     inkscape:current-layer="layer1"
     showgrid="false"
     fit-margin-top="0"
     fit-margin-left="0"
     fit-margin-right="0"
     fit-margin-bottom="0"
     units="mm"
     inkscape:window-maximized="1"
     inkscape:zoom="0.87948324"
     inkscape:cx="601.34278"
     inkscape:cy="537.36741"
     inkscape:window-width="1366"
     inkscape:window-height="705"
     inkscape:window-x="-8"
     inkscape:window-y="-8" />
  <metadata
     id="metadata7">
    <rdf:rdf>
      <cc:work
         rdf:about="">
        <dc:format>image/svg+xml</dc:format>
        <dc:type
           rdf:resource="http://purl.org/dc/dcmitype/StillImage" />
        <dc:title />
      </cc:work>
    </rdf:rdf>
    <rdf:RDF>
      <cc:Work
         rdf:about="">
        <dc:format>image/svg+xml</dc:format>
        <dc:type
           rdf:resource="http://purl.org/dc/dcmitype/StillImage" />
      </cc:Work>
    </rdf:RDF>
  </metadata>
  <g
     inkscape:label="Calque 1"
     inkscape:groupmode="layer"
     id="layer1">
    <path
       style="fill:#ffffff;stroke:#ff0000"
       id="bottom"
       transform="translate(10.62992125984252,10.62992125984252)"
       d="m 0,0 35.610236220472444,0 0,10.62992125984252 35.07874015748032,0 0,-10.62992125984252 35.78740157480315,0 0,10.62992125984252 35.07874015748032,0 0,-10.62992125984252 35.78740157480315,0 0,10.62992125984252 35.07874015748032,0 0,-10.62992125984252 35.78740157480315,0 0,10.62992125984252 35.07874015748032,0 0,-10.62992125984252 35.78740157480315,0 0,10.62992125984252 35.07874015748032,0 0,-10.62992125984252 35.78740157480315,0 0,10.62992125984252 35.07874015748032,0 0,-10.62992125984252 35.78740157480315,0 0,10.62992125984252 35.07874015748032,0 0,-10.62992125984252 35.610236220472444,0 0,40.67210348706412 -10.62992125984252,0 0,40.140607424071995 10.62992125984252,0 0,40.84926884139483 -10.62992125984252,0 0,40.140607424071995 10.62992125984252,0 0,40.84926884139483 -10.62992125984252,0 0,40.140607424071995 10.62992125984252,0 0,40.67210348706412 -35.610236220472444,0 0,-10.62992125984252 -35.07874015748032,0 0,10.62992125984252 -35.78740157480315,0 0,-10.62992125984252 -35.07874015748032,0 0,10.62992125984252 -35.78740157480315,0 0,-10.62992125984252 -35.07874015748032,0 0,10.62992125984252 -35.78740157480315,0 0,-10.62992125984252 -35.07874015748032,0 0,10.62992125984252 -35.78740157480315,0 0,-10.62992125984252 -35.07874015748032,0 0,10.62992125984252 -35.78740157480315,0 0,-10.62992125984252 -35.07874015748032,0 0,10.62992125984252 -35.78740157480315,0 0,-10.62992125984252 -35.07874015748032,0 0,10.62992125984252 -35.610236220472444,0 0,-40.67210348706412 10.62992125984252,0 0,-40.140607424071995 -10.62992125984252,0 0,-40.84926884139483 10.62992125984252,0 0,-40.140607424071995 -10.62992125984252,0 0,-40.84926884139483 10.62992125984252,0 0,-40.140607424071995 -10.62992125984252,0 0,-40.67210348706412 z" />
    <path
       style="fill:#ffffff;stroke:#ff0000"
       id="top"
       d="m 0,0 35.610236220472444,0 0,10.62992125984252 35.07874015748032,0 0,-10.62992125984252 35.78740157480315,0 0,10.62992125984252 35.07874015748032,0 0,-10.62992125984252 35.78740157480315,0 0,10.62992125984252 35.07874015748032,0 0,-10.62992125984252 35.78740157480315,0 0,10.62992125984252 35.07874015748032,0 0,-10.62992125984252 35.78740157480315,0 0,10.62992125984252 35.07874015748032,0 0,-10.62992125984252 35.78740157480315,0 0,10.62992125984252 35.07874015748032,0 0,-10.62992125984252 35.78740157480315,0 0,10.62992125984252 35.07874015748032,0 0,-10.62992125984252 35.610236220472444,0 0,40.67210348706412 -10.62992125984252,0 0,40.140607424071995 10.62992125984252,0 0,40.84926884139483 -10.62992125984252,0 0,40.140607424071995 10.62992125984252,0 0,40.84926884139483 -10.62992125984252,0 0,40.140607424071995 10.62992125984252,0 0,40.67210348706412 -35.610236220472444,0 0,-10.62992125984252 -35.07874015748032,0 0,10.62992125984252 -35.78740157480315,0 0,-10.62992125984252 -35.07874015748032,0 0,10.62992125984252 -35.78740157480315,0 0,-10.62992125984252 -35.07874015748032,0 0,10.62992125984252 -35.78740157480315,0 0,-10.62992125984252 -35.07874015748032,0 0,10.62992125984252 -35.78740157480315,0 0,-10.62992125984252 -35.07874015748032,0 0,10.62992125984252 -35.78740157480315,0 0,-10.62992125984252 -35.07874015748032,0 0,10.62992125984252 -35.78740157480315,0 0,-10.62992125984252 -35.07874015748032,0 0,10.62992125984252 -35.610236220472444,0 0,-40.67210348706412 10.62992125984252,0 0,-40.140607424071995 -10.62992125984252,0 0,-40.84926884139483 10.62992125984252,0 0,-40.140607424071995 -10.62992125984252,0 0,-40.84926884139483 10.62992125984252,0 0,-40.140607424071995 -10.62992125984252,0 0,-40.67210348706412 z"
       transform="translate(552.7559055118111,10.62992125984252)" />
    <path
       style="fill:#ffffff;stroke:#ff0000"
       id="font"
       transform="translate(552.7559055118111,304.7244094488189)"
       d="m 0,10.62992125984252 35.25590551181102,0 0,-10.62992125984252 35.78740157480315,0 0,10.62992125984252 35.07874015748032,0 0,-10.62992125984252 35.78740157480315,0 0,10.62992125984252 35.07874015748032,0 0,-10.62992125984252 35.78740157480315,0 0,10.62992125984252 35.07874015748032,0 0,-10.62992125984252 35.78740157480315,0 0,10.62992125984252 35.07874015748032,0 0,-10.62992125984252 35.78740157480315,0 0,10.62992125984252 35.07874015748032,0 0,-10.62992125984252 35.78740157480315,0 0,10.62992125984252 35.07874015748032,0 0,-10.62992125984252 35.78740157480315,0 0,10.62992125984252 35.25590551181102,0 0,40.33464566929135 -10.62992125984252,0 0,39.80314960629922 10.62992125984252,0 0,40.33464566929135 -35.25590551181102,0 0,10.62992125984252 -35.78740157480315,0 0,-10.62992125984252 -35.07874015748032,0 0,10.62992125984252 -35.78740157480315,0 0,-10.62992125984252 -35.07874015748032,0 0,10.62992125984252 -35.78740157480315,0 0,-10.62992125984252 -35.07874015748032,0 0,10.62992125984252 -35.78740157480315,0 0,-10.62992125984252 -35.07874015748032,0 0,10.62992125984252 -35.78740157480315,0 0,-10.62992125984252 -35.07874015748032,0 0,10.62992125984252 -35.78740157480315,0 0,-10.62992125984252 -35.07874015748032,0 0,10.62992125984252 -35.78740157480315,0 0,-10.62992125984252 -35.25590551181102,0 0,-40.33464566929135 10.62992125984252,0 0,-39.80314960629922 -10.62992125984252,0 0,-40.33464566929135 z" />
    <path
       style="fill:#ffffff;stroke:#ff0000"
       id="back"
       transform="translate(10.62992125984252,304.7244094488189)"
       d="m 0,10.62992125984252 35.25590551181102,0 0,-10.62992125984252 35.78740157480315,0 0,10.62992125984252 35.07874015748032,0 0,-10.62992125984252 35.78740157480315,0 0,10.62992125984252 35.07874015748032,0 0,-10.62992125984252 35.78740157480315,0 0,10.62992125984252 35.07874015748032,0 0,-10.62992125984252 35.78740157480315,0 0,10.62992125984252 35.07874015748032,0 0,-10.62992125984252 35.78740157480315,0 0,10.62992125984252 35.07874015748032,0 0,-10.62992125984252 35.78740157480315,0 0,10.62992125984252 35.07874015748032,0 0,-10.62992125984252 35.78740157480315,0 0,10.62992125984252 35.25590551181102,0 0,40.33464566929135 -10.62992125984252,0 0,39.80314960629922 10.62992125984252,0 0,40.33464566929135 -35.25590551181102,0 0,10.62992125984252 -35.78740157480315,0 0,-10.62992125984252 -35.07874015748032,0 0,10.62992125984252 -35.78740157480315,0 0,-10.62992125984252 -35.07874015748032,0 0,10.62992125984252 -35.78740157480315,0 0,-10.62992125984252 -35.07874015748032,0 0,10.62992125984252 -35.78740157480315,0 0,-10.62992125984252 -35.07874015748032,0 0,10.62992125984252 -35.78740157480315,0 0,-10.62992125984252 -35.07874015748032,0 0,10.62992125984252 -35.78740157480315,0 0,-10.62992125984252 -35.07874015748032,0 0,10.62992125984252 -35.78740157480315,0 0,-10.62992125984252 -35.25590551181102,0 0,-40.33464566929135 10.62992125984252,0 0,-39.80314960629922 -10.62992125984252,0 0,-40.33464566929135 z" />
    <path
       style="fill:#ffffff;stroke:#ff0000"
       id="left_side"
       transform="translate(304.7244094488189,457.0866141732284)"
       d="m 10.62992125984252,10.62992125984252 29.68785151856018,0 0,-10.62992125984252 40.84926884139483,0 0,10.62992125984252 40.140607424071995,0 0,-10.62992125984252 40.84926884139483,0 0,10.62992125984252 40.140607424071995,0 0,-10.62992125984252 40.84926884139483,0 0,10.62992125984252 29.68785151856018,0 0,39.980314960629926 10.62992125984252,0 0,40.51181102362205 -10.62992125984252,0 0,39.980314960629926 -29.68785151856018,0 0,10.62992125984252 -40.84926884139483,0 0,-10.62992125984252 -40.140607424071995,0 0,10.62992125984252 -40.84926884139483,0 0,-10.62992125984252 -40.140607424071995,0 0,10.62992125984252 -40.84926884139483,0 0,-10.62992125984252 -29.68785151856018,0 0,-39.980314960629926 -10.62992125984252,0 0,-40.51181102362205 10.62992125984252,0 0,-39.980314960629926 z" />
    <path
       style="fill:#ffffff;stroke:#ff0000"
       id="right_side"
       transform="translate(10.62992125984252,457.0866141732284)"
       d="m 10.62992125984252,10.62992125984252 29.68785151856018,0 0,-10.62992125984252 40.84926884139483,0 0,10.62992125984252 40.140607424071995,0 0,-10.62992125984252 40.84926884139483,0 0,10.62992125984252 40.140607424071995,0 0,-10.62992125984252 40.84926884139483,0 0,10.62992125984252 29.68785151856018,0 0,39.980314960629926 10.62992125984252,0 0,40.51181102362205 -10.62992125984252,0 0,39.980314960629926 -29.68785151856018,0 0,10.62992125984252 -40.84926884139483,0 0,-10.62992125984252 -40.140607424071995,0 0,10.62992125984252 -40.84926884139483,0 0,-10.62992125984252 -40.140607424071995,0 0,10.62992125984252 -40.84926884139483,0 0,-10.62992125984252 -29.68785151856018,0 0,-39.980314960629926 -10.62992125984252,0 0,-40.51181102362205 10.62992125984252,0 0,-39.980314960629926 z" />
    <ellipse
       id="path3735"
       cx="675.96515"
       cy="99.490242"
       rx="21.03508"
       ry="18.761017"
       style="fill:none;fill-opacity:1" />
    <circle
       style="fill:none;stroke:#ff0000;stroke-width:0.7962963;stroke-opacity:1"
       id="path5982"
       cx="696"
       cy="211.44879"
       r="21.101852" />
    <circle
       style="fill:none;stroke:#ff0000;stroke-width:0.7962963;stroke-opacity:1"
       id="path5982-5"
       cx="696"
       cy="104.94879"
       r="21.101852" />
    <circle
       style="fill:none;stroke:#ff0000;stroke-width:0.7962963;stroke-opacity:1"
       id="path5982-9"
       cx="908"
       cy="152.94879"
       r="21.101852" />
    <circle
       style="fill:none;stroke:#ff0000;stroke-width:0.7962963;stroke-opacity:1"
       id="path5982-9-3"
       cx="-1018.4777"
       cy="-123.72121"
       r="21.101852"
       inkscape:transform-center-x="-5.00923"
       inkscape:transform-center-y="-3.6515127"
       transform="rotate(-178.35267)" />
    <circle
       style="fill:none;stroke:#ff0000;stroke-width:0.75396901;stroke-opacity:1"
       id="path6052"
       cx="820"
       cy="64.448792"
       r="9.6230154" />
  </g>
</svg>
